<svg width="39" height="39" viewBox="0 0 39 39" fill="none" xmlns="http://www.w3.org/2000/svg">
<path d="M0 4.5303C0 3.21714 0.439202 2.13381 1.31757 1.2803C2.19593 0.426755 3.33785 0 4.74324 0C6.12356 0 7.24033 0.420176 8.09363 1.26061C8.97199 2.12727 9.4112 3.25654 9.4112 4.64848C9.4112 5.90909 8.98457 6.95957 8.13127 7.8C7.25291 8.66667 6.09845 9.1 4.66795 9.1H4.63031C3.24999 9.1 2.13322 8.66667 1.27992 7.8C0.426628 6.93333 0 5.84342 0 4.5303ZM0.489382 39V12.6848H8.84652V39H0.489382ZM13.4768 39H21.834V24.3061C21.834 23.3868 21.9344 22.6777 22.1351 22.1788C22.4865 21.2858 23.0198 20.5308 23.735 19.9136C24.4503 19.2964 25.3475 18.9879 26.4266 18.9879C29.2375 18.9879 30.6429 20.9707 30.6429 24.9364V39H39V23.9121C39 20.0252 38.1216 17.0773 36.3649 15.0682C34.6081 13.0591 32.2867 12.0545 29.4006 12.0545C26.1631 12.0545 23.6409 13.5121 21.834 16.4273V16.5061H21.7963L21.834 16.4273V12.6848H13.4768C13.527 13.5252 13.5521 16.1384 13.5521 20.5242C13.5521 24.9101 13.527 31.0687 13.4768 39Z" fill="white"/>
</svg>
