<svg width="18" height="22" viewBox="0 0 18 22" fill="none" xmlns="http://www.w3.org/2000/svg">
<path d="M8.99992 21.4995C7.52635 20.2426 6.16048 18.8646 4.91659 17.38C3.04992 15.1505 0.833253 11.8302 0.833253 8.66621C0.832443 7.05033 1.31101 5.47053 2.2084 4.12674C3.10578 2.78295 4.38164 1.73558 5.8745 1.11717C7.36736 0.498766 9.01013 0.337129 10.5949 0.652714C12.1797 0.968299 13.6352 1.74692 14.7773 2.89004C15.5376 3.64704 16.1403 4.54733 16.5505 5.53881C16.9606 6.53029 17.17 7.59326 17.1666 8.66621C17.1666 11.8302 14.9499 15.1505 13.0833 17.38C11.8394 18.8646 10.4735 20.2426 8.99992 21.4995ZM8.99992 5.16621C8.07166 5.16621 7.18142 5.53496 6.52505 6.19133C5.86867 6.84771 5.49992 7.73795 5.49992 8.66621C5.49992 9.59447 5.86867 10.4847 6.52505 11.1411C7.18142 11.7975 8.07166 12.1662 8.99992 12.1662C9.92818 12.1662 10.8184 11.7975 11.4748 11.1411C12.1312 10.4847 12.4999 9.59447 12.4999 8.66621C12.4999 7.73795 12.1312 6.84771 11.4748 6.19133C10.8184 5.53496 9.92818 5.16621 8.99992 5.16621Z" fill="white"/>
</svg>
