<svg width="37" height="31" viewBox="0 0 37 31" fill="none" xmlns="http://www.w3.org/2000/svg">
<path d="M36.7812 4.1753C35.4365 4.75537 33.9731 5.17286 32.4658 5.33545C34.0308 4.40573 35.2027 2.93692 35.7617 1.20459C34.2932 2.07818 32.6845 2.69075 31.0068 3.01514C30.3057 2.26555 29.4576 1.66839 28.5156 1.26088C27.5735 0.85336 26.5577 0.64422 25.5312 0.646487C21.3784 0.646487 18.0386 4.0127 18.0386 8.14356C18.0386 8.72364 18.1089 9.30372 18.2231 9.86182C12.0049 9.53663 6.45898 6.56592 2.77197 2.01758C2.10016 3.16506 1.74811 4.4716 1.75244 5.80127C1.75244 8.40284 3.07519 10.6968 5.09228 12.0459C3.90358 11.9991 2.74272 11.6724 1.7041 11.0923V11.1846C1.7041 14.8276 4.2793 17.8467 7.71142 18.541C7.06701 18.7084 6.40408 18.794 5.73828 18.7959C5.25049 18.7959 4.78906 18.7476 4.32324 18.6816C5.27246 21.6524 8.03662 23.8101 11.3281 23.8804C8.75293 25.8975 5.52734 27.084 2.0249 27.084C1.39648 27.084 0.816406 27.062 0.214355 26.9917C3.53662 29.1231 7.47851 30.3535 11.7236 30.3535C25.5049 30.3535 33.0459 18.9365 33.0459 9.02686C33.0459 8.70166 33.0459 8.37647 33.0239 8.05127C34.4829 6.9834 35.7617 5.66065 36.7812 4.1753Z" fill="white"/>
</svg>
