<svg width="39" height="27" viewBox="0 0 39 27" fill="none" xmlns="http://www.w3.org/2000/svg">
<path d="M19.5114 26.6478H19.4739C19.3576 26.6478 7.727 26.6253 4.79263 25.8284C3.99976 25.6148 3.27692 25.1967 2.69645 24.6159C2.11599 24.0351 1.69828 23.312 1.48513 22.519C0.957474 19.5422 0.702666 16.5234 0.723879 13.5003C0.710257 10.4722 0.971959 7.44912 1.50575 4.46842C1.72492 3.67412 2.14457 2.94948 2.72441 2.36405C3.30426 1.77862 4.02484 1.35206 4.817 1.12529C7.67075 0.37529 18.9808 0.37529 19.4608 0.37529H19.5001C19.6183 0.37529 31.2789 0.39779 34.1833 1.19466C35.7939 1.63154 37.052 2.88966 37.487 4.50029C38.0308 7.48904 38.2876 10.5209 38.2501 13.5584C38.2633 16.5828 38.0009 19.6022 37.4664 22.579C37.2505 23.3712 36.8311 24.093 36.2499 24.6729C35.6687 25.2528 34.9459 25.6705 34.1533 25.8847C31.3033 26.6403 19.9914 26.6478 19.5114 26.6478ZM15.7614 7.88467L15.752 19.1347L25.5245 13.5097L15.7614 7.88467Z" fill="white"/>
</svg>
