<svg width="19" height="19" viewBox="0 0 19 19" fill="none" xmlns="http://www.w3.org/2000/svg">
<path d="M12.3415 13.0962L13.8115 11.6262C14.0095 11.4307 14.26 11.2969 14.5326 11.2409C14.8052 11.185 15.0882 11.2094 15.3471 11.3112L17.1387 12.0266C17.4004 12.1328 17.6248 12.3141 17.7837 12.5477C17.9425 12.7813 18.0286 13.0566 18.0312 13.3391V16.6203C18.0297 16.8124 17.9893 17.0023 17.9125 17.1784C17.8356 17.3545 17.724 17.5133 17.5842 17.6451C17.4444 17.7769 17.2794 17.8791 17.099 17.9454C16.9187 18.0118 16.7268 18.041 16.535 18.0312C3.98089 17.2503 1.44776 6.61906 0.968701 2.55031C0.946462 2.3505 0.966781 2.14826 1.02832 1.95687C1.08986 1.76548 1.19122 1.58929 1.32574 1.43989C1.46027 1.29049 1.6249 1.17127 1.8088 1.09006C1.99271 1.00886 2.19173 0.967513 2.39276 0.968746H5.56245C5.8453 0.969584 6.12143 1.05502 6.35533 1.21407C6.58923 1.37312 6.77019 1.59851 6.87495 1.86125L7.59026 3.65281C7.69543 3.91076 7.72226 4.19398 7.6674 4.46709C7.61255 4.7402 7.47844 4.9911 7.28183 5.18843L5.81183 6.65843C5.81183 6.65843 6.65839 12.3875 12.3415 13.0962Z" fill="white"/>
</svg>
